<?xml version="1.0" encoding="UTF-8"?>
<!-- Created with Inkscape (http://www.inkscape.org/) -->
<svg width="1024" height="64" version="1.1" viewBox="0 0 1024 64" xmlns="http://www.w3.org/2000/svg">
 <g fill="none" stroke="#2d2136">
  <g stroke-width="5.175">
   <path d="m477.5 31.847c-3.0443 3.4485-3.0443 17.251 0 20.7 3.068 3.4754 9.1642 5.175 13.8 5.175s10.732-1.6996 13.8-5.175c3.0443-3.4485 3.0443-17.251 0-20.7-3.068-3.4754-9.1642-5.175-13.8-5.175s-10.732 1.6996-13.8 5.175z"/>
   <path d="m508.55 42.197h6.9"/>
   <path d="m546.5 31.847c-3.068-3.4754-9.1642-5.175-13.8-5.175s-10.732 1.6996-13.8 5.175c-3.0443 3.4485-3.0443 17.251 0 20.7 3.068 3.4754 9.1642 5.175 13.8 5.175s10.732-1.6996 13.8-5.175c3.0443-3.4485 3.0443-17.251 0-20.7z"/>
  </g>
  <g stroke-linecap="round">
   <path d="m474.05 35.297s-5.175-18.975-10.35-27.6c-2.3667-3.9445-10.35 6.9-10.35 6.9" stroke-width="5.175"/>
   <path d="m549.95 35.297 10.35-27.6c1.6152-4.3071 10.35 6.9 10.35 6.9" stroke-width="5.175"/>
   <g stroke-width="6.3381">
    <path d="m312.48 42.197h152.66"/>
    <path d="m558.86 42.197h152.66"/>
    <path d="m158.48 42.197h152.66"/>
    <path d="m712.86 42.197h152.66"/>
   </g>
  </g>
 </g>
</svg>
