<?xml version="1.0" encoding="UTF-8"?>
<!-- Created with Inkscape (http://www.inkscape.org/) -->
<svg width="64" height="64" version="1.1" viewBox="0 0 256 256" xmlns="http://www.w3.org/2000/svg">
 <g fill="#2d2136">
  <path d="m96.892 137.36c1.1147 17.904 11.913 55.972 29.852 55.972 17.939 0 28.737-38.068 29.852-55.972 1.3826-22.207-6.4824-85.824-29.852-85.824s-31.234 63.617-29.852 85.824z"/>
  <path d="m67.04 189.6h55.972l-22.389-44.778s-42.048 28.962-33.583 44.778z"/>
  <path d="m189.05 189.6h-55.972l22.389-44.778s42.048 28.962 33.583 44.778z"/>
  <path d="m119.28 197.07c2.3296-1.0715 4.8987 1.8657 7.4629 1.8657 2.5642 0 5.1333-2.9372 7.4629-1.8657 5.0536 2.3244 8.354 9.4351 7.4629 14.926-1.1271 6.9453-7.8897 26.12-14.926 26.12-7.0361 0-13.799-19.175-14.926-26.12-0.89102-5.4907 2.4093-12.602 7.4629-14.926z"/>
  <circle transform="rotate(45)" cx="199.76" cy="-72.507" r="26.101"/>
  <path d="m170 67.46-18.456-18.456" stroke="#2d2136" stroke-linecap="round" stroke-width="6.1481"/>
 </g>
 <path d="m215.04 112.5 18.456 18.456" fill="none" stroke="#2d2136" stroke-linecap="round" stroke-width="6.1481"/>
 <g fill="#2d2136" stroke="#2d2136" stroke-linecap="round" stroke-width="2">
  <path transform="matrix(2.1456 0 0 2.1456 -140.3 -119.88)" d="m102.91 124c-0.25761 0.1288-2.5145-1.5047-2.7986-1.552-0.28411-0.0472-2.948 0.76861-3.1501 0.56342-0.2021-0.2052 0.65407-2.8564 0.61118-3.1412-0.04289-0.28479-1.642-2.5662-1.5093-2.8218s2.9187-0.26062 3.1763-0.38942c0.2576-0.1288 1.9332-2.3546 2.2173-2.3074 0.28412 0.0472 1.1498 2.6953 1.3519 2.9005s2.8368 1.111 2.8797 1.3958c0.0429 0.28479-2.2081 1.9264-2.3408 2.182-0.13269 0.25562-0.17999 3.0412-0.43759 3.17z"/>
  <path transform="matrix(1.5363 .71637 -.71637 1.5363 -100.41 -179.32)" d="m154.91 120c-0.25752 0.12876-2.5137-1.5043-2.7977-1.5515-0.28402-0.0472-2.9471 0.76837-3.1491 0.56324s0.65387-2.8555 0.61099-3.1402c-0.0429-0.28471-1.6415-2.5654-1.5088-2.821 0.13266-0.25554 2.9178-0.26054 3.1753-0.3893 0.25753-0.12876 1.9326-2.3539 2.2166-2.3067 0.28402 0.0472 1.1494 2.6945 1.3515 2.8996s2.8359 1.1106 2.8788 1.3953c0.0429 0.28471-2.2074 1.9258-2.3401 2.1814-0.13265 0.25554-0.17993 3.0403-0.43746 3.1691z"/>
  <path transform="matrix(.94352 -.79171 -.79171 -.94352 22.11 313.25)" d="m154.91 120c-0.25752 0.12876-2.5137-1.5043-2.7977-1.5515-0.28402-0.0472-2.9471 0.76837-3.1491 0.56324s0.65387-2.8555 0.61099-3.1402c-0.0429-0.28471-1.6415-2.5654-1.5088-2.821 0.13266-0.25554 2.9178-0.26054 3.1753-0.3893 0.25753-0.12876 1.9326-2.3539 2.2166-2.3067 0.28402 0.0472 1.1494 2.6945 1.3515 2.8996s2.8359 1.1106 2.8788 1.3953c0.0429 0.28471-2.2074 1.9258-2.3401 2.1814-0.13265 0.25554-0.17993 3.0403-0.43746 3.1691z"/>
 </g>
</svg>
